<?xml version="1.0" encoding="utf-8"?>
<!-- Generator: Adobe Illustrator 18.1.0, SVG Export Plug-In . SVG Version: 6.00 Build 0)  -->
<!DOCTYPE svg PUBLIC "-//W3C//DTD SVG 1.1//EN" "http://www.w3.org/Graphics/SVG/1.1/DTD/svg11.dtd">
<svg version="1.1" id="Layer_1" xmlns="http://www.w3.org/2000/svg" xmlns:xlink="http://www.w3.org/1999/xlink" x="0px" y="0px"
	 viewBox="0 0 196 128" enable-background="new 0 0 196 128" xml:space="preserve">
<path fill="#117BFF" d="M180,68.3c0-0.1,0-0.2,0-0.3c0-17.7-14.3-32-32-32c-4.4,0-8.6,0.9-12.4,2.5C132.9,16.8,114.4,0,92,0
	C69,0,50.1,17.7,48.2,40.2C46.8,40.1,45.4,40,44,40C19.7,40,0,59.7,0,84s19.7,44,44,44h120c17.7,0,32-14.3,32-32
	C196,84.2,189.6,73.8,180,68.3z"/>
<circle fill="#FFFFFF" cx="110" cy="77" r="5"/>
<circle fill="#FFFFFF" cx="170" cy="107" r="5"/>
<circle fill="#FFFFFF" cx="30" cy="87" r="5"/>
<circle fill="#FFFFFF" cx="70" cy="47" r="3"/>
<circle fill="#FFFFFF" cx="100" cy="27" r="3"/>
<circle fill="#FFFFFF" cx="120" cy="97" r="3"/>
<circle fill="#FFFFFF" cx="130" cy="57" r="3"/>
<circle fill="#FFFFFF" cx="70" cy="117" r="3"/>
<circle fill="#FFFFFF" cx="40" cy="107" r="3"/>
<line fill="none" stroke="#FFFFFF" stroke-miterlimit="10" x1="70" y1="47" x2="30" y2="87"/>
<line fill="none" stroke="#FFFFFF" stroke-miterlimit="10" x1="30" y1="87" x2="110" y2="77"/>
<line fill="none" stroke="#FFFFFF" stroke-miterlimit="10" x1="110" y1="77" x2="100" y2="27"/>
<line fill="none" stroke="#FFFFFF" stroke-miterlimit="10" x1="40" y1="107" x2="70" y2="47"/>
<line fill="none" stroke="#FFFFFF" stroke-miterlimit="10" x1="120" y1="97" x2="30" y2="87"/>
<line fill="none" stroke="#FFFFFF" stroke-miterlimit="10" x1="120" y1="97" x2="170" y2="107"/>
<line fill="none" stroke="#FFFFFF" stroke-miterlimit="10" x1="70" y1="117" x2="110" y2="77"/>
<line fill="none" stroke="#FFFFFF" stroke-miterlimit="10" x1="110" y1="77" x2="70" y2="47"/>
<line fill="none" stroke="#FFFFFF" stroke-miterlimit="10" x1="130" y1="57" x2="120" y2="97"/>
<line fill="none" stroke="#FFFFFF" stroke-miterlimit="10" x1="130" y1="57" x2="100" y2="27"/>
</svg>
